# Blender 3.6.2
# www.blender.org
mtllib pot_base_col.mtl
o pot_base
v 0.000000 0.000000 -0.003000
v 0.000000 -0.090000 -0.003000
v 0.027812 -0.085595 -0.003000
v 0.000000 0.000000 0.003000
v 0.000000 -0.090000 0.003000
v 0.027812 -0.085595 0.003000
v 0.000000 -0.092999 -0.000075
v 0.028738 -0.088447 -0.000075
v 0.000000 -0.094999 0.079925
v 0.029356 -0.090349 0.079925
v 0.000000 -0.094174 0.082068
v 0.029101 -0.089564 0.082068
v 0.000000 -0.092075 0.082999
v 0.028453 -0.087569 0.082999
v 0.000000 -0.089932 0.082174
v 0.027791 -0.085531 0.082174
v 0.000000 -0.089001 0.080075
v 0.027503 -0.084645 0.080075
v 0.052901 -0.072812 -0.003000
v 0.052901 -0.072812 0.003000
v 0.054663 -0.075238 -0.000075
v 0.055839 -0.076856 0.079925
v 0.055354 -0.076188 0.082068
v 0.054120 -0.074490 0.082999
v 0.052861 -0.072757 0.082174
v 0.052313 -0.072003 0.080075
v 0.072812 -0.052901 -0.003000
v 0.072812 -0.052901 0.003000
v 0.075238 -0.054663 -0.000075
v 0.076856 -0.055839 0.079925
v 0.076188 -0.055354 0.082068
v 0.074490 -0.054120 0.082999
v 0.072757 -0.052861 0.082174
v 0.072003 -0.052313 0.080075
v 0.085595 -0.027812 -0.003000
v 0.085595 -0.027812 0.003000
v 0.088447 -0.028738 -0.000075
v 0.090349 -0.029356 0.079925
v 0.089564 -0.029101 0.082068
v 0.087569 -0.028453 0.082999
v 0.085531 -0.027791 0.082174
v 0.084645 -0.027503 0.080075
v 0.090000 -0.000000 -0.003000
v 0.090000 -0.000000 0.003000
v 0.092999 -0.000000 -0.000075
v 0.094999 -0.000000 0.079925
v 0.094174 -0.000000 0.082068
v 0.092075 -0.000000 0.082999
v 0.089932 -0.000000 0.082174
v 0.089001 -0.000000 0.080075
v 0.085595 0.027812 -0.003000
v 0.085595 0.027812 0.003000
v 0.088447 0.028738 -0.000075
v 0.090349 0.029356 0.079925
v 0.089564 0.029101 0.082068
v 0.087569 0.028453 0.082999
v 0.085531 0.027791 0.082174
v 0.084645 0.027503 0.080075
v 0.072812 0.052901 -0.003000
v 0.072812 0.052901 0.003000
v 0.075238 0.054663 -0.000075
v 0.076856 0.055839 0.079925
v 0.076188 0.055354 0.082068
v 0.074490 0.054120 0.082999
v 0.072757 0.052861 0.082174
v 0.072003 0.052313 0.080075
v 0.052901 0.072812 -0.003000
v 0.052901 0.072812 0.003000
v 0.054663 0.075238 -0.000075
v 0.055839 0.076856 0.079925
v 0.055354 0.076188 0.082068
v 0.054120 0.074490 0.082999
v 0.052861 0.072757 0.082174
v 0.052313 0.072003 0.080075
v 0.027812 0.085595 -0.003000
v 0.027812 0.085595 0.003000
v 0.028738 0.088447 -0.000075
v 0.029356 0.090349 0.079925
v 0.029101 0.089564 0.082068
v 0.028453 0.087569 0.082999
v 0.027791 0.085531 0.082174
v 0.027503 0.084645 0.080075
v 0.000000 0.090000 -0.003000
v 0.000000 0.090000 0.003000
v 0.000000 0.092999 -0.000075
v 0.000000 0.094999 0.079925
v 0.000000 0.094174 0.082068
v 0.000000 0.092075 0.082999
v 0.000000 0.089932 0.082174
v 0.000000 0.089001 0.080075
v -0.027812 0.085595 -0.003000
v -0.027812 0.085595 0.003000
v -0.028738 0.088447 -0.000075
v -0.029356 0.090349 0.079925
v -0.029101 0.089564 0.082068
v -0.028453 0.087569 0.082999
v -0.027791 0.085531 0.082174
v -0.027503 0.084645 0.080075
v -0.052901 0.072812 -0.003000
v -0.052901 0.072812 0.003000
v -0.054663 0.075238 -0.000075
v -0.055839 0.076856 0.079925
v -0.055354 0.076188 0.082068
v -0.054120 0.074490 0.082999
v -0.052861 0.072757 0.082174
v -0.052313 0.072003 0.080075
v -0.072812 0.052901 -0.003000
v -0.072812 0.052901 0.003000
v -0.075238 0.054663 -0.000075
v -0.076856 0.055839 0.079925
v -0.076188 0.055354 0.082068
v -0.074490 0.054120 0.082999
v -0.072757 0.052861 0.082174
v -0.072003 0.052313 0.080075
v -0.085595 0.027812 -0.003000
v -0.085595 0.027812 0.003000
v -0.088447 0.028738 -0.000075
v -0.090349 0.029356 0.079925
v -0.089564 0.029101 0.082068
v -0.087569 0.028453 0.082999
v -0.085531 0.027791 0.082174
v -0.084645 0.027503 0.080075
v -0.090000 0.000000 -0.003000
v -0.090000 0.000000 0.003000
v -0.092999 0.000000 -0.000075
v -0.094999 0.000000 0.079925
v -0.094174 0.000000 0.082068
v -0.092075 0.000000 0.082999
v -0.089932 0.000000 0.082174
v -0.089001 0.000000 0.080075
v -0.085595 -0.027812 -0.003000
v -0.085595 -0.027812 0.003000
v -0.088447 -0.028738 -0.000075
v -0.090349 -0.029356 0.079925
v -0.089564 -0.029101 0.082068
v -0.087569 -0.028453 0.082999
v -0.085531 -0.027791 0.082174
v -0.084645 -0.027503 0.080075
v -0.072812 -0.052901 -0.003000
v -0.072812 -0.052901 0.003000
v -0.075238 -0.054663 -0.000075
v -0.076856 -0.055839 0.079925
v -0.076188 -0.055354 0.082068
v -0.074490 -0.054120 0.082999
v -0.072757 -0.052861 0.082174
v -0.072003 -0.052313 0.080075
v -0.052901 -0.072812 -0.003000
v -0.052901 -0.072812 0.003000
v -0.054663 -0.075238 -0.000075
v -0.055839 -0.076856 0.079925
v -0.055354 -0.076188 0.082068
v -0.054120 -0.074490 0.082999
v -0.052861 -0.072757 0.082174
v -0.052313 -0.072003 0.080075
v -0.027812 -0.085595 -0.003000
v -0.027812 -0.085595 0.003000
v -0.028738 -0.088447 -0.000075
v -0.029356 -0.090349 0.079925
v -0.029101 -0.089564 0.082068
v -0.028453 -0.087569 0.082999
v -0.027791 -0.085531 0.082174
v -0.027503 -0.084645 0.080075
vn -0.0000 -0.0000 1.0000
vn 0.1099 -0.6940 -0.7116
vn 0.1564 -0.9874 -0.0247
vn 0.1462 -0.9231 0.3556
vn 0.0641 -0.4048 0.9121
vn -0.0568 0.3589 0.9316
vn -0.1433 0.9046 0.4015
vn -0.1564 0.9876 -0.0128
vn 0.3190 -0.6261 -0.7116
vn 0.4539 -0.8907 -0.0247
vn 0.4243 -0.8328 0.3556
vn 0.1861 -0.3652 0.9121
vn -0.1650 0.3238 0.9316
vn -0.4158 0.8161 0.4015
vn -0.4158 0.8160 0.4015
vn -0.4540 0.8909 -0.0128
vn 0.4968 -0.4968 -0.7116
vn 0.7069 -0.7069 -0.0247
vn 0.6609 -0.6609 0.3556
vn 0.2898 -0.2898 0.9121
vn -0.2569 0.2569 0.9316
vn -0.6476 0.6476 0.4015
vn -0.7070 0.7070 -0.0128
vn 0.6261 -0.3190 -0.7115
vn 0.6261 -0.3190 -0.7116
vn 0.8907 -0.4539 -0.0247
vn 0.8328 -0.4243 0.3556
vn 0.3652 -0.1861 0.9121
vn -0.3238 0.1650 0.9316
vn -0.8161 0.4158 0.4015
vn -0.8160 0.4158 0.4015
vn -0.8909 0.4540 -0.0128
vn 0.6940 -0.1099 -0.7116
vn 0.9874 -0.1564 -0.0247
vn 0.9231 -0.1462 0.3556
vn 0.4048 -0.0641 0.9121
vn -0.3589 0.0568 0.9316
vn -0.9046 0.1433 0.4015
vn -0.9876 0.1564 -0.0128
vn 0.6940 0.1099 -0.7115
vn 0.6940 0.1099 -0.7116
vn 0.9874 0.1564 -0.0247
vn 0.9231 0.1462 0.3556
vn 0.4048 0.0641 0.9121
vn -0.3589 -0.0568 0.9316
vn -0.9046 -0.1433 0.4015
vn -0.9876 -0.1564 -0.0128
vn 0.6261 0.3190 -0.7115
vn 0.6261 0.3190 -0.7116
vn 0.8907 0.4539 -0.0247
vn 0.8328 0.4243 0.3556
vn 0.3652 0.1861 0.9121
vn -0.3238 -0.1650 0.9316
vn -0.8160 -0.4158 0.4015
vn -0.8909 -0.4540 -0.0128
vn 0.4968 0.4968 -0.7116
vn 0.7069 0.7069 -0.0247
vn 0.6609 0.6609 0.3556
vn 0.2898 0.2898 0.9121
vn -0.2569 -0.2569 0.9316
vn -0.6476 -0.6476 0.4015
vn -0.7070 -0.7070 -0.0128
vn 0.3190 0.6261 -0.7116
vn 0.4539 0.8907 -0.0247
vn 0.4243 0.8328 0.3556
vn 0.1861 0.3652 0.9121
vn -0.1650 -0.3238 0.9316
vn -0.4158 -0.8161 0.4015
vn -0.4158 -0.8160 0.4015
vn -0.4540 -0.8909 -0.0128
vn 0.1099 0.6940 -0.7116
vn 0.1564 0.9874 -0.0247
vn 0.1462 0.9231 0.3556
vn 0.0641 0.4048 0.9121
vn -0.0568 -0.3589 0.9316
vn -0.1433 -0.9046 0.4015
vn -0.1564 -0.9876 -0.0128
vn -0.1099 0.6940 -0.7116
vn -0.1564 0.9874 -0.0247
vn -0.1462 0.9231 0.3556
vn -0.0641 0.4048 0.9121
vn 0.0568 -0.3589 0.9316
vn 0.1433 -0.9046 0.4015
vn 0.1564 -0.9876 -0.0128
vn -0.3190 0.6261 -0.7116
vn -0.4539 0.8907 -0.0247
vn -0.4243 0.8328 0.3556
vn -0.1861 0.3652 0.9121
vn 0.1650 -0.3238 0.9316
vn 0.4158 -0.8161 0.4015
vn 0.4158 -0.8160 0.4015
vn 0.4540 -0.8909 -0.0128
vn -0.4968 0.4968 -0.7116
vn -0.7069 0.7069 -0.0247
vn -0.6609 0.6609 0.3556
vn -0.2898 0.2898 0.9121
vn 0.2569 -0.2569 0.9316
vn 0.6476 -0.6476 0.4015
vn 0.7070 -0.7070 -0.0128
vn -0.6261 0.3190 -0.7115
vn -0.6261 0.3190 -0.7116
vn -0.8907 0.4539 -0.0247
vn -0.8328 0.4243 0.3556
vn -0.3652 0.1861 0.9121
vn 0.3238 -0.1650 0.9316
vn 0.8161 -0.4158 0.4015
vn 0.8160 -0.4158 0.4015
vn 0.8909 -0.4540 -0.0128
vn -0.6940 0.1099 -0.7116
vn -0.9874 0.1564 -0.0247
vn -0.9231 0.1462 0.3556
vn -0.4048 0.0641 0.9121
vn 0.3589 -0.0568 0.9316
vn 0.9046 -0.1433 0.4015
vn 0.9876 -0.1564 -0.0128
vn -0.6940 -0.1099 -0.7115
vn -0.6940 -0.1099 -0.7116
vn -0.9874 -0.1564 -0.0247
vn -0.9231 -0.1462 0.3556
vn -0.4048 -0.0641 0.9121
vn 0.3589 0.0568 0.9316
vn 0.9046 0.1433 0.4015
vn 0.9876 0.1564 -0.0128
vn -0.6261 -0.3190 -0.7115
vn -0.6261 -0.3190 -0.7116
vn -0.8907 -0.4539 -0.0247
vn -0.8328 -0.4243 0.3556
vn -0.3652 -0.1861 0.9121
vn 0.3238 0.1650 0.9316
vn 0.8160 0.4158 0.4015
vn 0.8909 0.4540 -0.0128
vn -0.4968 -0.4968 -0.7116
vn -0.7069 -0.7069 -0.0247
vn -0.6609 -0.6609 0.3556
vn -0.2898 -0.2898 0.9121
vn 0.2569 0.2569 0.9316
vn 0.6476 0.6476 0.4015
vn 0.7070 0.7070 -0.0128
vn -0.3190 -0.6261 -0.7116
vn -0.4539 -0.8907 -0.0247
vn -0.4243 -0.8328 0.3556
vn -0.1861 -0.3652 0.9121
vn 0.1650 0.3238 0.9316
vn 0.4158 0.8161 0.4015
vn 0.4158 0.8160 0.4015
vn 0.4540 0.8909 -0.0128
vn -0.1099 -0.6940 -0.7116
vn -0.1564 -0.9874 -0.0247
vn -0.1462 -0.9231 0.3556
vn -0.0641 -0.4048 0.9121
vn 0.0568 0.3589 0.9316
vn 0.1433 0.9046 0.4015
vn 0.1564 0.9876 -0.0128
s 0
f 1//1 2//1 3//1
f 4//1 5//1 6//1
f 2//2 3//2 7//2
f 7//2 3//2 8//2
f 7//3 8//3 9//3
f 9//3 8//3 10//3
f 9//4 10//4 11//4
f 11//4 10//4 12//4
f 11//5 12//5 13//5
f 13//5 12//5 14//5
f 13//6 14//6 15//6
f 15//6 14//6 16//6
f 15//7 16//7 17//7
f 17//7 16//7 18//7
f 17//8 18//8 5//8
f 5//8 18//8 6//8
f 1//1 3//1 19//1
f 4//1 6//1 20//1
f 3//9 19//9 8//9
f 8//9 19//9 21//9
f 8//10 21//10 10//10
f 10//10 21//10 22//10
f 10//11 22//11 12//11
f 12//11 22//11 23//11
f 12//12 23//12 14//12
f 14//12 23//12 24//12
f 14//13 24//13 16//13
f 16//13 24//13 25//13
f 16//14 25//14 18//14
f 18//15 25//15 26//15
f 18//16 26//16 6//16
f 6//16 26//16 20//16
f 1//1 19//1 27//1
f 4//1 20//1 28//1
f 19//17 27//17 21//17
f 21//17 27//17 29//17
f 21//18 29//18 22//18
f 22//18 29//18 30//18
f 22//19 30//19 23//19
f 23//19 30//19 31//19
f 23//20 31//20 24//20
f 24//20 31//20 32//20
f 24//21 32//21 25//21
f 25//21 32//21 33//21
f 25//22 33//22 26//22
f 26//22 33//22 34//22
f 26//23 34//23 20//23
f 20//23 34//23 28//23
f 1//1 27//1 35//1
f 4//1 28//1 36//1
f 27//24 35//24 29//24
f 29//25 35//25 37//25
f 29//26 37//26 30//26
f 30//26 37//26 38//26
f 30//27 38//27 31//27
f 31//27 38//27 39//27
f 31//28 39//28 32//28
f 32//28 39//28 40//28
f 32//29 40//29 33//29
f 33//29 40//29 41//29
f 33//30 41//30 34//30
f 34//31 41//31 42//31
f 34//32 42//32 28//32
f 28//32 42//32 36//32
f 1//1 35//1 43//1
f 4//1 36//1 44//1
f 35//33 43//33 37//33
f 37//33 43//33 45//33
f 37//34 45//34 38//34
f 38//34 45//34 46//34
f 38//35 46//35 39//35
f 39//35 46//35 47//35
f 39//36 47//36 40//36
f 40//36 47//36 48//36
f 40//37 48//37 41//37
f 41//37 48//37 49//37
f 41//38 49//38 42//38
f 42//38 49//38 50//38
f 42//39 50//39 36//39
f 36//39 50//39 44//39
f 1//1 43//1 51//1
f 4//1 44//1 52//1
f 43//40 51//40 45//40
f 45//41 51//41 53//41
f 45//42 53//42 46//42
f 46//42 53//42 54//42
f 46//43 54//43 47//43
f 47//43 54//43 55//43
f 47//44 55//44 48//44
f 48//44 55//44 56//44
f 48//45 56//45 49//45
f 49//45 56//45 57//45
f 49//46 57//46 50//46
f 50//46 57//46 58//46
f 50//47 58//47 44//47
f 44//47 58//47 52//47
f 1//1 51//1 59//1
f 4//1 52//1 60//1
f 51//48 59//48 53//48
f 53//49 59//49 61//49
f 53//50 61//50 54//50
f 54//50 61//50 62//50
f 54//51 62//51 55//51
f 55//51 62//51 63//51
f 55//52 63//52 56//52
f 56//52 63//52 64//52
f 56//53 64//53 57//53
f 57//53 64//53 65//53
f 57//54 65//54 58//54
f 58//54 65//54 66//54
f 58//55 66//55 52//55
f 52//55 66//55 60//55
f 1//1 59//1 67//1
f 4//1 60//1 68//1
f 59//56 67//56 61//56
f 61//56 67//56 69//56
f 61//57 69//57 62//57
f 62//57 69//57 70//57
f 62//58 70//58 63//58
f 63//58 70//58 71//58
f 63//59 71//59 64//59
f 64//59 71//59 72//59
f 64//60 72//60 65//60
f 65//60 72//60 73//60
f 65//61 73//61 66//61
f 66//61 73//61 74//61
f 66//62 74//62 60//62
f 60//62 74//62 68//62
f 1//1 67//1 75//1
f 4//1 68//1 76//1
f 67//63 75//63 69//63
f 69//63 75//63 77//63
f 69//64 77//64 70//64
f 70//64 77//64 78//64
f 70//65 78//65 71//65
f 71//65 78//65 79//65
f 71//66 79//66 72//66
f 72//66 79//66 80//66
f 72//67 80//67 73//67
f 73//67 80//67 81//67
f 73//68 81//68 74//68
f 74//69 81//69 82//69
f 74//70 82//70 68//70
f 68//70 82//70 76//70
f 1//1 75//1 83//1
f 4//1 76//1 84//1
f 75//71 83//71 77//71
f 77//71 83//71 85//71
f 77//72 85//72 78//72
f 78//72 85//72 86//72
f 78//73 86//73 79//73
f 79//73 86//73 87//73
f 79//74 87//74 80//74
f 80//74 87//74 88//74
f 80//75 88//75 81//75
f 81//75 88//75 89//75
f 81//76 89//76 82//76
f 82//76 89//76 90//76
f 82//77 90//77 76//77
f 76//77 90//77 84//77
f 1//1 83//1 91//1
f 4//1 84//1 92//1
f 83//78 91//78 85//78
f 85//78 91//78 93//78
f 85//79 93//79 86//79
f 86//79 93//79 94//79
f 86//80 94//80 87//80
f 87//80 94//80 95//80
f 87//81 95//81 88//81
f 88//81 95//81 96//81
f 88//82 96//82 89//82
f 89//82 96//82 97//82
f 89//83 97//83 90//83
f 90//83 97//83 98//83
f 90//84 98//84 84//84
f 84//84 98//84 92//84
f 1//1 91//1 99//1
f 4//1 92//1 100//1
f 91//85 99//85 93//85
f 93//85 99//85 101//85
f 93//86 101//86 94//86
f 94//86 101//86 102//86
f 94//87 102//87 95//87
f 95//87 102//87 103//87
f 95//88 103//88 96//88
f 96//88 103//88 104//88
f 96//89 104//89 97//89
f 97//89 104//89 105//89
f 97//90 105//90 98//90
f 98//91 105//91 106//91
f 98//92 106//92 92//92
f 92//92 106//92 100//92
f 1//1 99//1 107//1
f 4//1 100//1 108//1
f 99//93 107//93 101//93
f 101//93 107//93 109//93
f 101//94 109//94 102//94
f 102//94 109//94 110//94
f 102//95 110//95 103//95
f 103//95 110//95 111//95
f 103//96 111//96 104//96
f 104//96 111//96 112//96
f 104//97 112//97 105//97
f 105//97 112//97 113//97
f 105//98 113//98 106//98
f 106//98 113//98 114//98
f 106//99 114//99 100//99
f 100//99 114//99 108//99
f 1//1 107//1 115//1
f 4//1 108//1 116//1
f 107//100 115//100 109//100
f 109//101 115//101 117//101
f 109//102 117//102 110//102
f 110//102 117//102 118//102
f 110//103 118//103 111//103
f 111//103 118//103 119//103
f 111//104 119//104 112//104
f 112//104 119//104 120//104
f 112//105 120//105 113//105
f 113//105 120//105 121//105
f 113//106 121//106 114//106
f 114//107 121//107 122//107
f 114//108 122//108 108//108
f 108//108 122//108 116//108
f 1//1 115//1 123//1
f 4//1 116//1 124//1
f 115//109 123//109 117//109
f 117//109 123//109 125//109
f 117//110 125//110 118//110
f 118//110 125//110 126//110
f 118//111 126//111 119//111
f 119//111 126//111 127//111
f 119//112 127//112 120//112
f 120//112 127//112 128//112
f 120//113 128//113 121//113
f 121//113 128//113 129//113
f 121//114 129//114 122//114
f 122//114 129//114 130//114
f 122//115 130//115 116//115
f 116//115 130//115 124//115
f 1//1 123//1 131//1
f 4//1 124//1 132//1
f 123//116 131//116 125//116
f 125//117 131//117 133//117
f 125//118 133//118 126//118
f 126//118 133//118 134//118
f 126//119 134//119 127//119
f 127//119 134//119 135//119
f 127//120 135//120 128//120
f 128//120 135//120 136//120
f 128//121 136//121 129//121
f 129//121 136//121 137//121
f 129//122 137//122 130//122
f 130//122 137//122 138//122
f 130//123 138//123 124//123
f 124//123 138//123 132//123
f 1//1 131//1 139//1
f 4//1 132//1 140//1
f 131//124 139//124 133//124
f 133//125 139//125 141//125
f 133//126 141//126 134//126
f 134//126 141//126 142//126
f 134//127 142//127 135//127
f 135//127 142//127 143//127
f 135//128 143//128 136//128
f 136//128 143//128 144//128
f 136//129 144//129 137//129
f 137//129 144//129 145//129
f 137//130 145//130 138//130
f 138//130 145//130 146//130
f 138//131 146//131 132//131
f 132//131 146//131 140//131
f 1//1 139//1 147//1
f 4//1 140//1 148//1
f 139//132 147//132 141//132
f 141//132 147//132 149//132
f 141//133 149//133 142//133
f 142//133 149//133 150//133
f 142//134 150//134 143//134
f 143//134 150//134 151//134
f 143//135 151//135 144//135
f 144//135 151//135 152//135
f 144//136 152//136 145//136
f 145//136 152//136 153//136
f 145//137 153//137 146//137
f 146//137 153//137 154//137
f 146//138 154//138 140//138
f 140//138 154//138 148//138
f 1//1 147//1 155//1
f 4//1 148//1 156//1
f 147//139 155//139 149//139
f 149//139 155//139 157//139
f 149//140 157//140 150//140
f 150//140 157//140 158//140
f 150//141 158//141 151//141
f 151//141 158//141 159//141
f 151//142 159//142 152//142
f 152//142 159//142 160//142
f 152//143 160//143 153//143
f 153//143 160//143 161//143
f 153//144 161//144 154//144
f 154//145 161//145 162//145
f 154//146 162//146 148//146
f 148//146 162//146 156//146
f 1//1 155//1 2//1
f 4//1 156//1 5//1
f 155//147 2//147 157//147
f 157//147 2//147 7//147
f 157//148 7//148 158//148
f 158//148 7//148 9//148
f 158//149 9//149 159//149
f 159//149 9//149 11//149
f 159//150 11//150 160//150
f 160//150 11//150 13//150
f 160//151 13//151 161//151
f 161//151 13//151 15//151
f 161//152 15//152 162//152
f 162//152 15//152 17//152
f 162//153 17//153 156//153
f 156//153 17//153 5//153
