# Copyright (c) 2023 NVIDIA CORPORATION & AFFILIATES. All rights reserved.
#
# Licensed under the NVIDIA Source Code License [see LICENSE for details].

# normals regenerated: the original file declared vn entries but its
# faces carried no normal indices, so every vertex normal loaded as
# zero and shading broke. Geometry (vertices, faces, winding) is
# untouched; smoothing uses a 40 degree crease angle.
v -0.007244 0.001941 0.025000
v -0.007500 -0.000000 0.025000
v -0.007244 -0.001941 0.025000
v -0.006495 -0.003750 0.025000
v -0.005303 -0.005303 0.025000
v -0.003750 -0.006495 0.025000
v -0.001941 -0.007244 0.025000
v -0.000000 -0.007500 0.025000
v 0.001941 -0.007244 0.025000
v 0.003750 -0.006495 0.025000
v 0.005303 -0.005303 0.025000
v 0.006495 -0.003750 0.025000
v 0.007244 -0.001941 0.025000
v 0.007500 0.000000 0.025000
v 0.007244 0.001941 0.025000
v 0.006495 0.003750 0.025000
v 0.005303 0.005303 0.025000
v 0.003750 0.006495 0.025000
v 0.001941 0.007244 0.025000
v -0.000000 0.007500 0.025000
v -0.001941 0.007244 0.025000
v -0.003750 0.006495 0.025000
v -0.005303 0.005303 0.025000
v -0.006495 0.003750 0.025000
v -0.007244 -0.001941 -0.025000
v -0.007500 -0.000000 -0.025000
v -0.007244 0.001941 -0.025000
v -0.006495 0.003750 -0.025000
v -0.005303 0.005303 -0.025000
v -0.003750 0.006495 -0.025000
v -0.001941 0.007244 -0.025000
v 0.000000 0.007500 -0.025000
v 0.001941 0.007244 -0.025000
v 0.003750 0.006495 -0.025000
v 0.005303 0.005303 -0.025000
v 0.006495 0.003750 -0.025000
v 0.007244 0.001941 -0.025000
v 0.007500 0.000000 -0.025000
v 0.007244 -0.001941 -0.025000
v 0.006495 -0.003750 -0.025000
v 0.005303 -0.005303 -0.025000
v 0.003750 -0.006495 -0.025000
v 0.001941 -0.007244 -0.025000
v 0.000000 -0.007500 -0.025000
v -0.001941 -0.007244 -0.025000
v -0.003750 -0.006495 -0.025000
v -0.005303 -0.005303 -0.025000
v -0.006495 -0.003750 -0.025000
v 0.002071 0.007727 0.024500
v -0.000000 0.008000 0.024500
v 0.000000 0.008000 -0.024500
v 0.002071 0.007727 -0.024500
v 0.004000 0.006928 0.024500
v 0.004000 0.006928 -0.024500
v 0.005657 0.005657 0.024500
v 0.005657 0.005657 -0.024500
v 0.006928 0.004000 0.024500
v 0.006928 0.004000 -0.024500
v 0.007727 0.002071 0.024500
v 0.007727 0.002071 -0.024500
v 0.008000 0.000000 0.024500
v 0.008000 0.000000 -0.024500
v 0.007727 -0.002071 0.024500
v 0.007727 -0.002071 -0.024500
v 0.006928 -0.004000 0.024500
v 0.006928 -0.004000 -0.024500
v 0.005657 -0.005657 0.024500
v 0.005657 -0.005657 -0.024500
v 0.004000 -0.006928 0.024500
v 0.004000 -0.006928 -0.024500
v 0.002071 -0.007727 0.024500
v 0.002071 -0.007727 -0.024500
v -0.000000 -0.008000 0.024500
v 0.000000 -0.008000 -0.024500
v -0.002071 -0.007727 0.024500
v -0.002071 -0.007727 -0.024500
v -0.004000 -0.006928 0.024500
v -0.004000 -0.006928 -0.024500
v -0.005657 -0.005657 0.024500
v -0.005657 -0.005657 -0.024500
v -0.006928 -0.004000 0.024500
v -0.006928 -0.004000 -0.024500
v -0.007727 -0.002071 0.024500
v -0.007727 -0.002071 -0.024500
v -0.008000 -0.000000 0.024500
v -0.008000 -0.000000 -0.024500
v -0.007727 0.002071 0.024500
v -0.007727 0.002071 -0.024500
v -0.006928 0.004000 0.024500
v -0.006928 0.004000 -0.024500
v -0.005657 0.005657 0.024500
v -0.005657 0.005657 -0.024500
v -0.004000 0.006928 0.024500
v -0.004000 0.006928 -0.024500
v -0.002071 0.007727 0.024500
v -0.002071 0.007727 -0.024500
vn 0.000000 0.000000 1.000000
vn 0.000000 0.000000 -1.000000
vn 0.183030 0.682948 0.707165
vn -0.029744 0.706761 0.706827
vn 0.032409 0.706702 0.706769
vn 0.183011 0.682875 0.707240
vn 0.043898 0.999036 0.000000
vn -0.043898 0.999036 0.000000
vn 0.216300 0.976327 0.000000
vn 0.300939 0.953643 0.000000
vn 0.032409 0.706702 -0.706769
vn -0.029744 0.706761 -0.706827
vn 0.183030 0.682948 -0.707165
vn 0.183011 0.682875 -0.707240
vn 0.325311 0.628182 0.706796
vn 0.379035 0.597137 0.706936
vn 0.461505 0.887138 0.000000
vn 0.537396 0.843330 0.000000
vn 0.325311 0.628182 -0.706796
vn 0.379035 0.597137 -0.706936
vn 0.499844 0.499844 0.707327
vn 0.499684 0.499684 0.707553
vn 0.675382 0.737468 0.000000
vn 0.737468 0.675382 0.000000
vn 0.499844 0.499844 -0.707327
vn 0.499684 0.499684 -0.707553
vn 0.597137 0.379035 0.706936
vn 0.628182 0.325311 0.706796
vn 0.843330 0.537396 0.000000
vn 0.887138 0.461505 0.000000
vn 0.597137 0.379035 -0.706936
vn 0.628182 0.325311 -0.706796
vn 0.674948 0.211582 0.706879
vn 0.690938 0.151695 0.706819
vn 0.953643 0.300939 0.000000
vn 0.976327 0.216300 0.000000
vn 0.674948 0.211582 -0.706879
vn 0.690938 0.151695 -0.706819
vn 0.707057 -0.000000 0.707157
vn 0.707107 0.000000 0.707107
vn 0.999036 0.043898 0.000000
vn 0.999036 -0.043898 0.000000
vn 0.706761 0.029744 -0.706827
vn 0.706702 -0.032409 -0.706769
vn 0.690938 -0.151695 0.706819
vn 0.674948 -0.211582 0.706879
vn 0.976327 -0.216300 0.000000
vn 0.953643 -0.300939 0.000000
vn 0.682948 -0.183030 -0.707165
vn 0.682875 -0.183011 -0.707240
vn 0.628182 -0.325311 0.706796
vn 0.597137 -0.379035 0.706936
vn 0.887138 -0.461505 0.000000
vn 0.843330 -0.537396 0.000000
vn 0.628182 -0.325311 -0.706796
vn 0.597137 -0.379035 -0.706936
vn 0.499844 -0.499844 0.707327
vn 0.499684 -0.499684 0.707553
vn 0.737468 -0.675382 0.000000
vn 0.675382 -0.737468 0.000000
vn 0.499844 -0.499844 -0.707327
vn 0.499684 -0.499684 -0.707553
vn 0.325311 -0.628182 0.706796
vn 0.379035 -0.597137 0.706936
vn 0.537396 -0.843330 0.000000
vn 0.461505 -0.887138 0.000000
vn 0.379035 -0.597137 -0.706936
vn 0.325311 -0.628182 -0.706796
vn 0.183011 -0.682875 0.707240
vn 0.183030 -0.682948 0.707165
vn 0.300939 -0.953643 0.000000
vn 0.216300 -0.976327 0.000000
vn 0.183030 -0.682948 -0.707165
vn 0.183011 -0.682875 -0.707240
vn 0.032409 -0.706702 0.706769
vn -0.029744 -0.706761 0.706827
vn 0.043898 -0.999036 0.000000
vn -0.043898 -0.999036 0.000000
vn -0.029744 -0.706761 -0.706827
vn 0.032409 -0.706702 -0.706769
vn -0.151695 -0.690938 0.706819
vn -0.211582 -0.674948 0.706879
vn -0.216300 -0.976327 0.000000
vn -0.300939 -0.953643 0.000000
vn -0.211582 -0.674948 -0.706879
vn -0.151695 -0.690938 -0.706819
vn -0.325311 -0.628182 0.706796
vn -0.379035 -0.597137 0.706936
vn -0.461505 -0.887138 0.000000
vn -0.537396 -0.843330 0.000000
vn -0.379035 -0.597137 -0.706936
vn -0.325311 -0.628182 -0.706796
vn -0.499844 -0.499844 0.707327
vn -0.499684 -0.499684 0.707553
vn -0.675382 -0.737468 0.000000
vn -0.737468 -0.675382 0.000000
vn -0.499684 -0.499684 -0.707553
vn -0.499844 -0.499844 -0.707327
vn -0.628182 -0.325311 0.706796
vn -0.597137 -0.379035 0.706936
vn -0.843330 -0.537396 0.000000
vn -0.887138 -0.461505 0.000000
vn -0.597137 -0.379035 -0.706936
vn -0.628182 -0.325311 -0.706796
vn -0.690938 -0.151695 0.706819
vn -0.674948 -0.211582 0.706879
vn -0.953643 -0.300939 0.000000
vn -0.976327 -0.216300 0.000000
vn -0.682948 -0.183030 -0.707165
vn -0.682875 -0.183011 -0.707240
vn -0.707107 0.000000 0.707107
vn -0.707057 0.000000 0.707157
vn -0.999036 -0.043898 0.000000
vn -0.999036 0.043898 0.000000
vn -0.706761 0.029744 -0.706827
vn -0.706702 -0.032409 -0.706769
vn -0.690938 0.151695 0.706819
vn -0.674948 0.211582 0.706879
vn -0.976327 0.216300 0.000000
vn -0.953643 0.300939 0.000000
vn -0.674948 0.211582 -0.706879
vn -0.690938 0.151695 -0.706819
vn -0.628182 0.325311 0.706796
vn -0.597137 0.379035 0.706936
vn -0.887138 0.461505 0.000000
vn -0.843330 0.537396 0.000000
vn -0.597137 0.379035 -0.706936
vn -0.628182 0.325311 -0.706796
vn -0.499844 0.499844 0.707327
vn -0.499684 0.499684 0.707553
vn -0.737468 0.675382 0.000000
vn -0.675382 0.737468 0.000000
vn -0.499684 0.499684 -0.707553
vn -0.499844 0.499844 -0.707327
vn -0.379035 0.597137 0.706936
vn -0.325311 0.628182 0.706796
vn -0.537396 0.843330 0.000000
vn -0.461505 0.887138 0.000000
vn -0.379035 0.597137 -0.706936
vn -0.325311 0.628182 -0.706796
vn -0.211582 0.674948 0.706879
vn -0.151695 0.690938 0.706819
vn -0.300939 0.953643 0.000000
vn -0.216300 0.976327 0.000000
vn -0.211582 0.674948 -0.706879
vn -0.151695 0.690938 -0.706819
f 1//1 2//1 3//1
f 1//1 3//1 4//1
f 1//1 4//1 5//1
f 1//1 5//1 6//1
f 1//1 6//1 7//1
f 1//1 7//1 8//1
f 1//1 8//1 9//1
f 1//1 9//1 10//1
f 1//1 10//1 11//1
f 1//1 11//1 12//1
f 1//1 12//1 13//1
f 1//1 13//1 14//1
f 1//1 14//1 15//1
f 1//1 15//1 16//1
f 1//1 16//1 17//1
f 1//1 17//1 18//1
f 1//1 18//1 19//1
f 1//1 19//1 20//1
f 1//1 20//1 21//1
f 1//1 21//1 22//1
f 1//1 22//1 23//1
f 1//1 23//1 24//1
f 25//2 26//2 27//2
f 25//2 27//2 28//2
f 25//2 28//2 29//2
f 25//2 29//2 30//2
f 25//2 30//2 31//2
f 25//2 31//2 32//2
f 25//2 32//2 33//2
f 25//2 33//2 34//2
f 25//2 34//2 35//2
f 25//2 35//2 36//2
f 25//2 36//2 37//2
f 25//2 37//2 38//2
f 25//2 38//2 39//2
f 25//2 39//2 40//2
f 25//2 40//2 41//2
f 25//2 41//2 42//2
f 25//2 42//2 43//2
f 25//2 43//2 44//2
f 25//2 44//2 45//2
f 25//2 45//2 46//2
f 25//2 46//2 47//2
f 25//2 47//2 48//2
f 49//3 50//4 20//5
f 49//3 20//5 19//6
f 51//7 50//8 49//9
f 51//7 49//9 52//10
f 32//11 51//12 52//13
f 32//11 52//13 33//14
f 49//3 19//6 18//15
f 49//3 18//15 53//16
f 52//10 49//9 53//17
f 52//10 53//17 54//18
f 34//19 33//14 52//13
f 34//19 52//13 54//20
f 53//16 18//15 17//21
f 53//16 17//21 55//22
f 54//18 53//17 55//23
f 54//18 55//23 56//24
f 35//25 34//19 54//20
f 35//25 54//20 56//26
f 57//27 55//22 17//21
f 57//27 17//21 16//28
f 56//24 55//23 57//29
f 56//24 57//29 58//30
f 35//25 56//26 58//31
f 35//25 58//31 36//32
f 59//33 57//27 16//28
f 59//33 16//28 15//34
f 58//30 57//29 59//35
f 58//30 59//35 60//36
f 36//32 58//31 60//37
f 36//32 60//37 37//38
f 61//39 59//33 15//34
f 61//39 15//34 14//40
f 60//36 59//35 61//41
f 60//36 61//41 62//42
f 37//38 60//37 62//43
f 37//38 62//43 38//44
f 61//39 14//40 13//45
f 61//39 13//45 63//46
f 62//42 61//41 63//47
f 62//42 63//47 64//48
f 38//44 62//43 64//49
f 38//44 64//49 39//50
f 63//46 13//45 12//51
f 63//46 12//51 65//52
f 64//48 63//47 65//53
f 64//48 65//53 66//54
f 40//55 39//50 64//49
f 40//55 64//49 66//56
f 65//52 12//51 11//57
f 65//52 11//57 67//58
f 66//54 65//53 67//59
f 66//54 67//59 68//60
f 41//61 40//55 66//56
f 41//61 66//56 68//62
f 11//57 10//63 69//64
f 11//57 69//64 67//58
f 68//60 67//59 69//65
f 68//60 69//65 70//66
f 70//67 42//68 41//61
f 70//67 41//61 68//62
f 10//63 9//69 71//70
f 10//63 71//70 69//64
f 70//66 69//65 71//71
f 70//66 71//71 72//72
f 72//73 43//74 42//68
f 72//73 42//68 70//67
f 8//75 73//76 71//70
f 8//75 71//70 9//69
f 72//72 71//71 73//77
f 72//72 73//77 74//78
f 72//73 74//79 44//80
f 72//73 44//80 43//74
f 7//81 75//82 73//76
f 7//81 73//76 8//75
f 74//78 73//77 75//83
f 74//78 75//83 76//84
f 74//79 76//85 45//86
f 74//79 45//86 44//80
f 6//87 77//88 75//82
f 6//87 75//82 7//81
f 76//84 75//83 77//89
f 76//84 77//89 78//90
f 76//85 78//91 46//92
f 76//85 46//92 45//86
f 5//93 79//94 77//88
f 5//93 77//88 6//87
f 78//90 77//89 79//95
f 78//90 79//95 80//96
f 78//91 80//97 47//98
f 78//91 47//98 46//92
f 5//93 4//99 81//100
f 5//93 81//100 79//94
f 80//96 79//95 81//101
f 80//96 81//101 82//102
f 82//103 48//104 47//98
f 82//103 47//98 80//97
f 4//99 3//105 83//106
f 4//99 83//106 81//100
f 82//102 81//101 83//107
f 82//102 83//107 84//108
f 84//109 25//110 48//104
f 84//109 48//104 82//103
f 3//105 2//111 85//112
f 3//105 85//112 83//106
f 84//108 83//107 85//113
f 84//108 85//113 86//114
f 84//109 86//115 26//116
f 84//109 26//116 25//110
f 1//117 87//118 85//112
f 1//117 85//112 2//111
f 86//114 85//113 87//119
f 86//114 87//119 88//120
f 86//115 88//121 27//122
f 86//115 27//122 26//116
f 24//123 89//124 87//118
f 24//123 87//118 1//117
f 88//120 87//119 89//125
f 88//120 89//125 90//126
f 88//121 90//127 28//128
f 88//121 28//128 27//122
f 23//129 91//130 89//124
f 23//129 89//124 24//123
f 90//126 89//125 91//131
f 90//126 91//131 92//132
f 90//127 92//133 29//134
f 90//127 29//134 28//128
f 93//135 91//130 23//129
f 93//135 23//129 22//136
f 92//132 91//131 93//137
f 92//132 93//137 94//138
f 29//134 92//133 94//139
f 29//134 94//139 30//140
f 95//141 93//135 22//136
f 95//141 22//136 21//142
f 94//138 93//137 95//143
f 94//138 95//143 96//144
f 30//140 94//139 96//145
f 30//140 96//145 31//146
f 50//4 95//141 21//142
f 50//4 21//142 20//5
f 96//144 95//143 50//8
f 96//144 50//8 51//7
f 31//146 96//145 51//12
f 31//146 51//12 32//11
